<svg id="Capa_1" enable-background="new 0 0 511.98 511.98" height="512" viewBox="0 0 511.98 511.98" width="512" xmlns="http://www.w3.org/2000/svg"><g><path d="m235.434 389.253-111.687-111.687c-3.622-3.622-3.622-9.496 0-13.118l141.743-141.742c3.622-3.622 9.496-3.622 13.118 0l111.687 111.687c3.622 3.622 3.622 9.496 0 13.118l-141.743 141.742c-3.622 3.622-9.495 3.622-13.118 0z" fill="#d0e2e7"/><path d="m390.294 234.393-15.474-15.474c3.622 3.622 3.622 9.496 0 13.118l-141.741 141.742c-3.622 3.622-9.496 3.623-13.118 0l15.474 15.474c3.623 3.623 9.496 3.622 13.118 0l141.742-141.742c3.622-3.623 3.622-9.496-.001-13.118z" fill="#b4d0d5"/><path d="m381.246 225.344-93.59-93.59 29.485-9.665c5.115-1.677 10.738-.334 14.545 3.472l55.753 55.753c3.806 3.806 5.149 9.43 3.472 14.545z" fill="#365e7d"/><path d="m390.91 195.859c1.677-5.115.334-10.738-3.472-14.545l-15.608-15.608c3.806 3.806 5.149 9.43 3.472 14.545l-9.665 29.485 15.608 15.608z" fill="#2b4d66"/><path d="m132.796 286.615 93.59 93.59-29.485 9.665c-5.115 1.677-10.738.334-14.545-3.472l-55.753-55.753c-3.806-3.806-5.149-9.43-3.472-14.545z" fill="#365e7d"/><path d="m210.778 364.597-29.485 9.665c-5.115 1.677-10.738.334-14.545-3.472l15.608 15.608c3.806 3.806 9.429 5.149 14.544 3.472l29.485-9.664z" fill="#2b4d66"/><path d="m142.108 246.087-123.568-123.567c-13.359-13.359-13.359-35.018 0-48.377l56.644-56.644c13.359-13.359 35.018-13.359 48.377 0l123.568 123.568z" fill="#b1e4f9"/><path d="m266.913 370.892 123.568 123.568c13.359 13.359 35.018 13.359 48.377 0l56.644-56.644c13.359-13.359 13.359-35.018 0-48.377l-123.568-123.568z" fill="#b1e4f9"/><path d="m167.994 282.365c-6.021-6.021-6.021-15.782 0-21.803l93.61-93.61c6.021-6.021 15.782-6.021 21.803 0 6.021 6.021 6.021 15.782 0 21.803l-93.61 93.61c-6.021 6.021-15.782 6.021-21.803 0z" fill="#b3e59f"/><path d="m422.724 112.39-26.196 4.083 4.083-26.196c.428-2.748 2.584-4.904 5.333-5.333l17.547-2.735c4.278-.667 7.968 3.023 7.302 7.302l-2.735 17.547c-.429 2.748-2.585 4.904-5.334 5.332z" fill="#e278b1"/><g><path d="m309.591 204.332c-2.929-2.928-7.677-2.928-10.607 0l-93.61 93.609c-2.929 2.93-2.929 7.678 0 10.607 1.465 1.464 3.384 2.196 5.304 2.196 1.919 0 3.839-.732 5.304-2.196l93.61-93.609c2.928-2.929 2.928-7.677-.001-10.607z"/><path d="m330.471 225.212c-2.93-2.928-7.678-2.928-10.607 0l-93.609 93.61c-2.929 2.93-2.929 7.678 0 10.607 1.465 1.464 3.385 2.196 5.304 2.196s3.839-.732 5.304-2.196l93.609-93.61c2.927-2.929 2.927-7.677-.001-10.607z"/><path d="m351.352 246.093c-2.93-2.928-7.678-2.928-10.607 0l-93.609 93.609c-2.929 2.93-2.929 7.678 0 10.607 1.465 1.464 3.385 2.196 5.304 2.196s3.839-.732 5.304-2.196l93.609-93.609c2.927-2.929 2.927-7.677-.001-10.607z"/><path d="m326.114 70.715h.058c4.115 0 7.468-3.32 7.499-7.443.085-11.243 4.492-21.796 12.41-29.713 7.917-7.918 18.47-12.325 29.715-12.411 4.142-.032 7.474-3.415 7.442-7.558-.032-4.142-3.415-7.519-7.558-7.442-15.207.116-29.486 6.084-40.207 16.804-10.721 10.721-16.688 25-16.803 40.207-.03 4.141 3.303 7.525 7.444 7.556z"/><path d="m380.05 28.795c-10.329.078-20.03 4.133-27.315 11.416-7.284 7.285-11.339 16.985-11.417 27.316-.031 4.142 3.301 7.525 7.443 7.557h.058c4.115 0 7.468-3.32 7.499-7.443.048-6.367 2.543-12.341 7.023-16.822 4.482-4.481 10.456-6.976 16.822-7.023 4.143-.031 7.475-3.415 7.443-7.557-.031-4.123-3.383-7.443-7.499-7.443h-.057z"/><path d="m384.418 51.438c-5.45.042-10.572 2.185-14.424 6.034-3.85 3.85-5.992 8.973-6.034 14.423-.031 4.143 3.301 7.525 7.442 7.558h.059c4.115 0 7.468-3.32 7.499-7.442.011-1.488.594-2.884 1.641-3.93 1.048-1.048 2.444-1.632 3.933-1.643 4.142-.032 7.474-3.415 7.442-7.558-.031-4.122-3.384-7.442-7.499-7.442z"/><path d="m449.729 179.329c-4.142.031-7.475 3.415-7.443 7.557.031 4.123 3.383 7.443 7.499 7.443h.058c15.207-.115 29.486-6.082 40.207-16.803 10.721-10.722 16.688-25.001 16.804-40.208.031-4.142-3.302-7.525-7.443-7.557h-.058c-4.115 0-7.468 3.32-7.499 7.443-.085 11.243-4.492 21.796-12.411 29.714-7.919 7.919-18.471 12.326-29.714 12.411z"/><path d="m437.916 164.239c.031 4.123 3.383 7.443 7.499 7.443h.058c10.331-.078 20.031-4.133 27.316-11.418 7.283-7.284 11.338-16.985 11.416-27.314.031-4.142-3.301-7.525-7.443-7.557-4.141-.064-7.524 3.301-7.557 7.443-.048 6.366-2.542 12.34-7.023 16.821s-10.455 6.977-16.822 7.024c-4.143.033-7.475 3.417-7.444 7.558z"/><path d="m433.548 141.598c.031 4.122 3.384 7.442 7.499 7.442h.059c5.45-.042 10.573-2.185 14.423-6.034s5.992-8.973 6.034-14.424c.031-4.143-3.301-7.525-7.442-7.558h-.059c-4.115 0-7.468 3.32-7.499 7.442-.011 1.488-.594 2.885-1.642 3.932-1.047 1.048-2.442 1.631-3.931 1.642-4.141.032-7.473 3.415-7.442 7.558z"/><path d="m506.019 418.282c-3.892-1.413-8.195.596-9.61 4.487-1.339 3.683-3.428 6.961-6.21 9.743l-4.941 4.941-26.813-26.812 23.827-23.827 7.926 7.926c1.383 1.384 2.624 2.938 3.689 4.619 2.218 3.498 6.852 4.536 10.351 2.319 3.498-2.218 4.536-6.852 2.319-10.351-1.655-2.61-3.59-5.03-5.751-7.193-5.82-5.82-114.227-114.226-118.265-118.264l13.057-13.057c3.168-3.169 4.913-7.382 4.913-11.863s-1.745-8.694-4.913-11.862l-5.789-5.789 8.229-25.104c2.571-7.846.543-16.346-5.295-22.185l-22.573-22.573 29.933-29.932 23.777-3.706h.001c5.997-.936 10.653-5.593 11.586-11.588l2.734-17.547c.681-4.366-.778-8.839-3.902-11.964-3.125-3.124-7.594-4.583-11.964-3.902l-17.545 2.733c-5.997.934-10.654 5.59-11.59 11.589l-3.705 23.777-29.933 29.933-22.573-22.573c-5.839-5.838-14.341-7.864-22.184-5.295l-25.105 8.229-5.788-5.788c-3.168-3.169-7.381-4.915-11.862-4.915s-8.694 1.746-11.863 4.914l-13.057 13.057-118.266-118.265c-16.263-16.26-42.722-16.259-58.984 0-6.985 6.985-46.975 46.977-56.643 56.645-7.878 7.878-12.216 18.352-12.216 29.492s4.339 21.614 12.216 29.492l118.263 118.265-13.057 13.057c-6.54 6.54-6.54 17.183 0 23.726l5.789 5.789-8.229 25.103c-2.572 7.847-.543 16.347 5.296 22.184l26.033 26.034c2.929 2.929 7.678 2.93 10.606.001 2.93-2.929 2.93-7.678.001-10.606l-26.034-26.035c-1.817-1.817-2.449-4.462-1.648-6.904l5.864-17.887 76.331 76.33-17.887 5.864c-2.443.797-5.089.168-6.906-1.649l-8.516-8.515c-2.928-2.928-7.677-2.929-10.606.001-2.929 2.929-2.929 7.678.001 10.606l8.515 8.514c4.164 4.166 9.685 6.393 15.356 6.393 2.277 0 4.579-.359 6.827-1.096l25.105-8.229 5.79 5.79c3.271 3.27 7.566 4.905 11.862 4.905s8.592-1.636 11.862-4.905l13.058-13.058c16.287 16.288 105.679 105.68 118.264 118.265 7.878 7.877 18.352 12.216 29.492 12.216s21.614-4.339 29.492-12.216l56.645-56.645c4.344-4.345 7.607-9.468 9.7-15.227 1.415-3.894-.594-8.197-4.487-9.612zm-98.123-326.052 15.251-2.377-2.377 15.251-15.251 2.377zm-88.419 36.987c2.443-.801 5.089-.169 6.905 1.648l27.867 27.867c.003.003.006.007.009.01s.007.006.01.009l27.867 27.867c1.817 1.816 2.449 4.463 1.648 6.905l-5.863 17.888-76.331-76.331zm155.173 318.844-25.547 25.547-26.813-26.813 25.547-25.547zm-123.252-3.29 23.826-23.826 25.851 25.851-23.826 23.826zm-36.458-36.458 23.826-23.826 25.851 25.851-23.826 23.826zm22.56-97.401 26.813 26.813-25.547 25.547-26.813-26.813zm37.421 37.42 25.851 25.851-25.547 25.547-25.851-25.851zm60.284-8.583-23.826 23.826-25.851-25.851 23.826-23.826zm-49.373 70.589 25.547-25.547 25.851 25.851-25.547 25.547zm62.005-10.304-25.851-25.851 23.826-23.826 25.851 25.851zm-49.09-96.743-23.826 23.826-26.813-26.812 23.826-23.826zm-319.91-131.082 23.826-23.826 25.851 25.851-23.826 23.826zm-36.458-36.458 23.826-23.826 25.851 25.851-23.826 23.826zm22.56-97.401 26.813 26.813-25.548 25.547-26.812-26.812zm37.42 37.42 25.851 25.851-25.547 25.547-25.851-25.851zm60.285-8.582-23.826 23.826-25.851-25.852 23.826-23.826zm36.458 36.458-23.826 23.826-25.851-25.851 23.826-23.826zm-85.832 34.13 25.547-25.547 25.851 25.851-25.547 25.547zm62.006 10.911 26.812 26.812-25.547 25.547-26.812-26.812zm37.42 16.205-26.812-26.812 23.826-23.826 26.812 26.812zm-113.323-149.9c6.838 0 13.679 2.604 18.885 7.81l7.927 7.927-23.826 23.826-26.813-26.813 4.94-4.94c5.208-5.207 12.046-7.81 18.887-7.81zm-83.352 83.339c0-7.134 2.778-13.841 7.823-18.885l4.941-4.941 26.812 26.812-23.826 23.826-7.928-7.928c-5.044-5.043-7.822-11.75-7.822-18.884zm99.274 110.337 23.826-23.826 26.812 26.812-23.826 23.826zm127.953 175.281c-.691.693-1.818.693-2.51 0l-9.048-9.048s-.001-.001-.001-.001l-93.59-93.59c-.005-.005-.01-.008-.015-.013l-9.034-9.034c-.692-.692-.692-1.819 0-2.512l141.743-141.741c.43-.431.92-.521 1.256-.521.335 0 .825.091 1.255.521l111.688 111.687c.43.43.52.92.52 1.255 0 .336-.09.826-.521 1.256zm58.098-36.882 26.813 26.813-23.826 23.826-26.813-26.813zm113.323 149.913c-7.134 0-13.841-2.778-18.885-7.823l-7.928-7.928 23.826-23.826 26.813 26.813-4.941 4.941c-5.044 5.044-11.751 7.823-18.885 7.823z"/><path d="m254.889 217.273c-2.93-2.928-7.678-2.928-10.607 0l-59.788 59.789c-1.495 1.496-3.482 2.319-5.598 2.319s-4.103-.823-5.598-2.319c-1.496-1.495-2.319-3.483-2.319-5.598s.823-4.104 2.319-5.599l93.609-93.609c1.495-1.496 3.483-2.319 5.598-2.319s4.103.823 5.598 2.319c1.496 1.495 2.319 3.483 2.319 5.598s-.823 4.103-2.319 5.598l-12.617 12.617c-2.929 2.93-2.929 7.678 0 10.607 2.93 2.928 7.678 2.928 10.607 0l12.617-12.617c4.328-4.329 6.712-10.084 6.712-16.205s-2.384-11.876-6.712-16.205c-4.329-4.328-10.084-6.712-16.205-6.712s-11.876 2.384-16.205 6.712l-93.609 93.609c-8.936 8.936-8.936 23.476 0 32.411 4.329 4.328 10.084 6.712 16.205 6.712s11.876-2.384 16.205-6.712l59.788-59.789c2.928-2.93 2.928-7.678 0-10.607z"/></g></g></svg>